<svg width="24" height="20" viewBox="0 0 24 20" fill="none" xmlns="http://www.w3.org/2000/svg">
<path d="M9 19C10.1046 19 11 18.1046 11 17C11 15.8954 10.1046 15 9 15C7.89543 15 7 15.8954 7 17C7 18.1046 7.89543 19 9 19Z" fill="black"/>
<path d="M18 19C19.1046 19 20 18.1046 20 17C20 15.8954 19.1046 15 18 15C16.8954 15 16 15.8954 16 17C16 18.1046 16.8954 19 18 19Z" fill="black"/>
<path d="M22.4766 4.70264L19.001 12H8.00098L5.00098 2H1.00098" stroke="black" stroke-width="3"/>
<path d="M24 4H19V6H24V4Z" fill="white"/>
</svg>
