<svg width="100" height="100" viewBox="0 0 100 100" fill="none" xmlns="http://www.w3.org/2000/svg">
<path fill-rule="evenodd" clip-rule="evenodd" d="M50 100C77.6142 100 100 77.6142 100 50C100 22.3858 77.6142 0 50 0C22.3858 0 0 22.3858 0 50C0 77.6142 22.3858 100 50 100ZM50 97C75.9574 97 97 75.9574 97 50C97 24.0426 75.9574 3 50 3C24.0426 3 3 24.0426 3 50C3 75.9574 24.0426 97 50 97Z" fill="black"/>
<path d="M29.5663 42.005H25.3963L24.7063 44H22.5013L26.2663 33.515H28.7113L32.4763 44H30.2563L29.5663 42.005ZM28.9963 40.325L27.4813 35.945L25.9663 40.325H28.9963ZM35.9836 36.98C36.2536 36.54 36.6036 36.195 37.0336 35.945C37.4736 35.695 37.9736 35.57 38.5336 35.57V37.775H37.9786C37.3186 37.775 36.8186 37.93 36.4786 38.24C36.1486 38.55 35.9836 39.09 35.9836 39.86V44H33.8836V35.69H35.9836V36.98ZM50.2681 35.57C51.2881 35.57 52.1081 35.885 52.7281 36.515C53.3581 37.135 53.6731 38.005 53.6731 39.125V44H51.5731V39.41C51.5731 38.76 51.4081 38.265 51.0781 37.925C50.7481 37.575 50.2981 37.4 49.7281 37.4C49.1581 37.4 48.7031 37.575 48.3631 37.925C48.0331 38.265 47.8681 38.76 47.8681 39.41V44H45.7681V39.41C45.7681 38.76 45.6031 38.265 45.2731 37.925C44.9431 37.575 44.4931 37.4 43.9231 37.4C43.3431 37.4 42.8831 37.575 42.5431 37.925C42.2131 38.265 42.0481 38.76 42.0481 39.41V44H39.9481V35.69H42.0481V36.695C42.3181 36.345 42.6631 36.07 43.0831 35.87C43.5131 35.67 43.9831 35.57 44.4931 35.57C45.1431 35.57 45.7231 35.71 46.2331 35.99C46.7431 36.26 47.1381 36.65 47.4181 37.16C47.6881 36.68 48.0781 36.295 48.5881 36.005C49.1081 35.715 49.6681 35.57 50.2681 35.57ZM55.1259 39.815C55.1259 38.975 55.2909 38.23 55.6209 37.58C55.9609 36.93 56.4159 36.43 56.9859 36.08C57.5659 35.73 58.2109 35.555 58.9209 35.555C59.5409 35.555 60.0809 35.68 60.5409 35.93C61.0109 36.18 61.3859 36.495 61.6659 36.875V35.69H63.7809V44H61.6659V42.785C61.3959 43.175 61.0209 43.5 60.5409 43.76C60.0709 44.01 59.5259 44.135 58.9059 44.135C58.2059 44.135 57.5659 43.955 56.9859 43.595C56.4159 43.235 55.9609 42.73 55.6209 42.08C55.2909 41.42 55.1259 40.665 55.1259 39.815ZM61.6659 39.845C61.6659 39.335 61.5659 38.9 61.3659 38.54C61.1659 38.17 60.8959 37.89 60.5559 37.7C60.2159 37.5 59.8509 37.4 59.4609 37.4C59.0709 37.4 58.7109 37.495 58.3809 37.685C58.0509 37.875 57.7809 38.155 57.5709 38.525C57.3709 38.885 57.2709 39.315 57.2709 39.815C57.2709 40.315 57.3709 40.755 57.5709 41.135C57.7809 41.505 58.0509 41.79 58.3809 41.99C58.7209 42.19 59.0809 42.29 59.4609 42.29C59.8509 42.29 60.2159 42.195 60.5559 42.005C60.8959 41.805 61.1659 41.525 61.3659 41.165C61.5659 40.795 61.6659 40.355 61.6659 39.845ZM70.4369 35.57C71.4269 35.57 72.2269 35.885 72.8369 36.515C73.4469 37.135 73.7519 38.005 73.7519 39.125V44H71.6519V39.41C71.6519 38.75 71.4869 38.245 71.1569 37.895C70.8269 37.535 70.3769 37.355 69.8069 37.355C69.2269 37.355 68.7669 37.535 68.4269 37.895C68.0969 38.245 67.9319 38.75 67.9319 39.41V44H65.8319V35.69H67.9319V36.725C68.2119 36.365 68.5669 36.085 68.9969 35.885C69.4369 35.675 69.9169 35.57 70.4369 35.57ZM76.8139 34.7C76.4439 34.7 76.1339 34.585 75.8839 34.355C75.6439 34.115 75.5239 33.82 75.5239 33.47C75.5239 33.12 75.6439 32.83 75.8839 32.6C76.1339 32.36 76.4439 32.24 76.8139 32.24C77.1839 32.24 77.4889 32.36 77.7289 32.6C77.9789 32.83 78.1039 33.12 78.1039 33.47C78.1039 33.82 77.9789 34.115 77.7289 34.355C77.4889 34.585 77.1839 34.7 76.8139 34.7ZM77.8489 35.69V44H75.7489V35.69H77.8489ZM16.3694 58.225V60.85H19.8944V62.515H16.3694V65.29H20.3444V67H14.2694V56.515H20.3444V58.225H16.3694ZM26.8428 67L25.1328 64.42L23.6178 67H21.3678L24.0828 62.83L21.3378 58.69H23.7078L25.4028 61.255L26.9328 58.69H29.1828L26.4528 62.83L29.2128 67H26.8428ZM29.8134 62.845C29.8134 61.985 29.9884 61.235 30.3384 60.595C30.6884 59.945 31.1734 59.445 31.7934 59.095C32.4134 58.735 33.1234 58.555 33.9234 58.555C34.9534 58.555 35.8034 58.815 36.4734 59.335C37.1534 59.845 37.6084 60.565 37.8384 61.495H35.5734C35.4534 61.135 35.2484 60.855 34.9584 60.655C34.6784 60.445 34.3284 60.34 33.9084 60.34C33.3084 60.34 32.8334 60.56 32.4834 61C32.1334 61.43 31.9584 62.045 31.9584 62.845C31.9584 63.635 32.1334 64.25 32.4834 64.69C32.8334 65.12 33.3084 65.335 33.9084 65.335C34.7584 65.335 35.3134 64.955 35.5734 64.195H37.8384C37.6084 65.095 37.1534 65.81 36.4734 66.34C35.7934 66.87 34.9434 67.135 33.9234 67.135C33.1234 67.135 32.4134 66.96 31.7934 66.61C31.1734 66.25 30.6884 65.75 30.3384 65.11C29.9884 64.46 29.8134 63.705 29.8134 62.845ZM44.0568 58.57C44.6868 58.57 45.2468 58.71 45.7368 58.99C46.2268 59.26 46.6068 59.665 46.8768 60.205C47.1568 60.735 47.2968 61.375 47.2968 62.125V67H45.1968V62.41C45.1968 61.75 45.0318 61.245 44.7018 60.895C44.3718 60.535 43.9218 60.355 43.3518 60.355C42.7718 60.355 42.3118 60.535 41.9718 60.895C41.6418 61.245 41.4768 61.75 41.4768 62.41V67H39.3768V55.9H41.4768V59.725C41.7468 59.365 42.1068 59.085 42.5568 58.885C43.0068 58.675 43.5068 58.57 44.0568 58.57ZM48.7538 62.815C48.7538 61.975 48.9188 61.23 49.2488 60.58C49.5888 59.93 50.0438 59.43 50.6138 59.08C51.1938 58.73 51.8388 58.555 52.5488 58.555C53.1688 58.555 53.7088 58.68 54.1688 58.93C54.6388 59.18 55.0138 59.495 55.2938 59.875V58.69H57.4088V67H55.2938V65.785C55.0238 66.175 54.6488 66.5 54.1688 66.76C53.6988 67.01 53.1538 67.135 52.5338 67.135C51.8338 67.135 51.1938 66.955 50.6138 66.595C50.0438 66.235 49.5888 65.73 49.2488 65.08C48.9188 64.42 48.7538 63.665 48.7538 62.815ZM55.2938 62.845C55.2938 62.335 55.1938 61.9 54.9938 61.54C54.7938 61.17 54.5238 60.89 54.1838 60.7C53.8438 60.5 53.4788 60.4 53.0888 60.4C52.6988 60.4 52.3388 60.495 52.0088 60.685C51.6788 60.875 51.4088 61.155 51.1988 61.525C50.9988 61.885 50.8988 62.315 50.8988 62.815C50.8988 63.315 50.9988 63.755 51.1988 64.135C51.4088 64.505 51.6788 64.79 52.0088 64.99C52.3488 65.19 52.7088 65.29 53.0888 65.29C53.4788 65.29 53.8438 65.195 54.1838 65.005C54.5238 64.805 54.7938 64.525 54.9938 64.165C55.1938 63.795 55.2938 63.355 55.2938 62.845ZM64.0648 58.57C65.0548 58.57 65.8548 58.885 66.4648 59.515C67.0748 60.135 67.3798 61.005 67.3798 62.125V67H65.2798V62.41C65.2798 61.75 65.1148 61.245 64.7848 60.895C64.4548 60.535 64.0048 60.355 63.4348 60.355C62.8548 60.355 62.3948 60.535 62.0548 60.895C61.7248 61.245 61.5598 61.75 61.5598 62.41V67H59.4598V58.69H61.5598V59.725C61.8398 59.365 62.1948 59.085 62.6248 58.885C63.0648 58.675 63.5448 58.57 64.0648 58.57ZM72.6318 58.555C73.2518 58.555 73.7968 58.68 74.2668 58.93C74.7368 59.17 75.1068 59.485 75.3768 59.875V58.69H77.4918V67.06C77.4918 67.83 77.3368 68.515 77.0268 69.115C76.7168 69.725 76.2518 70.205 75.6318 70.555C75.0118 70.915 74.2618 71.095 73.3818 71.095C72.2018 71.095 71.2318 70.82 70.4718 70.27C69.7218 69.72 69.2968 68.97 69.1968 68.02H71.2818C71.3918 68.4 71.6268 68.7 71.9868 68.92C72.3568 69.15 72.8018 69.265 73.3218 69.265C73.9318 69.265 74.4268 69.08 74.8068 68.71C75.1868 68.35 75.3768 67.8 75.3768 67.06V65.77C75.1068 66.16 74.7318 66.485 74.2518 66.745C73.7818 67.005 73.2418 67.135 72.6318 67.135C71.9318 67.135 71.2918 66.955 70.7118 66.595C70.1318 66.235 69.6718 65.73 69.3318 65.08C69.0018 64.42 68.8368 63.665 68.8368 62.815C68.8368 61.975 69.0018 61.23 69.3318 60.58C69.6718 59.93 70.1268 59.43 70.6968 59.08C71.2768 58.73 71.9218 58.555 72.6318 58.555ZM75.3768 62.845C75.3768 62.335 75.2768 61.9 75.0768 61.54C74.8768 61.17 74.6068 60.89 74.2668 60.7C73.9268 60.5 73.5618 60.4 73.1718 60.4C72.7818 60.4 72.4218 60.495 72.0918 60.685C71.7618 60.875 71.4918 61.155 71.2818 61.525C71.0818 61.885 70.9818 62.315 70.9818 62.815C70.9818 63.315 71.0818 63.755 71.2818 64.135C71.4918 64.505 71.7618 64.79 72.0918 64.99C72.4318 65.19 72.7918 65.29 73.1718 65.29C73.5618 65.29 73.9268 65.195 74.2668 65.005C74.6068 64.805 74.8768 64.525 75.0768 64.165C75.2768 63.795 75.3768 63.355 75.3768 62.845ZM87.2678 62.665C87.2678 62.965 87.2478 63.235 87.2078 63.475H81.1328C81.1828 64.075 81.3928 64.545 81.7628 64.885C82.1328 65.225 82.5878 65.395 83.1278 65.395C83.9078 65.395 84.4628 65.06 84.7928 64.39H87.0578C86.8178 65.19 86.3578 65.85 85.6778 66.37C84.9978 66.88 84.1628 67.135 83.1728 67.135C82.3728 67.135 81.6528 66.96 81.0128 66.61C80.3828 66.25 79.8878 65.745 79.5278 65.095C79.1778 64.445 79.0028 63.695 79.0028 62.845C79.0028 61.985 79.1778 61.23 79.5278 60.58C79.8778 59.93 80.3678 59.43 80.9978 59.08C81.6278 58.73 82.3528 58.555 83.1728 58.555C83.9628 58.555 84.6678 58.725 85.2878 59.065C85.9178 59.405 86.4028 59.89 86.7428 60.52C87.0928 61.14 87.2678 61.855 87.2678 62.665ZM85.0928 62.065C85.0828 61.525 84.8878 61.095 84.5078 60.775C84.1278 60.445 83.6628 60.28 83.1128 60.28C82.5928 60.28 82.1528 60.44 81.7928 60.76C81.4428 61.07 81.2278 61.505 81.1478 62.065H85.0928Z" fill="black"/>
</svg>
